<svg width="86" height="83" viewBox="0 0 86 83" fill="none" xmlns="http://www.w3.org/2000/svg">
<path fill-rule="evenodd" clip-rule="evenodd" d="M69.3775 58.4535C60.8582 72.717 45.1005 67.2202 29.1736 61.5697C13.2467 55.9192 0.819636 46.7111 9.33895 32.4477C17.8583 18.1842 37.6595 11.2056 53.5803 16.8511C69.5011 22.4965 77.8609 44.2313 69.3488 58.4865L69.3775 58.4535Z" fill="#5F2DED" fill-opacity="0.05"/>
<g clip-path="url(#clip0_703_21)">
<path d="M35.9228 51.1644H42.0478C42.3185 51.1644 42.5782 51.0616 42.7696 50.8788C42.9611 50.6959 43.0686 50.4479 43.0686 50.1894C43.0686 49.9308 42.9611 49.6828 42.7696 49.4999C42.5782 49.3171 42.3185 49.2144 42.0478 49.2144H35.9228C35.6521 49.2144 35.3924 49.3171 35.201 49.4999C35.0095 49.6828 34.902 49.9308 34.902 50.1894C34.902 50.4479 35.0095 50.6959 35.201 50.8788C35.3924 51.0616 35.6521 51.1644 35.9228 51.1644Z" fill="#FFB31F"/>
<path d="M21.0973 51.1388C20.9476 50.925 20.7156 50.7764 20.4517 50.7253C20.1879 50.6742 19.9136 50.7246 19.6885 50.8658L16.626 52.8158C16.4871 52.9049 16.3732 53.0254 16.2945 53.1665C16.2157 53.3076 16.1746 53.4651 16.1746 53.625C16.1746 53.7849 16.2157 53.9424 16.2945 54.0835C16.3732 54.2246 16.4871 54.3451 16.626 54.4343L19.6885 56.3843C19.8529 56.4942 20.0493 56.5522 20.25 56.55C20.4681 56.5484 20.6799 56.4801 20.8544 56.3552C21.0289 56.2302 21.1569 56.0552 21.2197 55.8557C21.2825 55.6562 21.2767 55.4427 21.2033 55.2466C21.1298 55.0504 20.9925 54.8819 20.8114 54.7658L19.025 53.625L20.8114 52.4843C21.0352 52.3413 21.1908 52.1197 21.2443 51.8677C21.2979 51.6157 21.245 51.3537 21.0973 51.1388Z" fill="#FFB31F"/>
<path d="M24.5783 48.75C24.3157 48.6882 24.0381 48.7284 23.8065 48.8618C23.5749 48.9953 23.4082 49.2111 23.3431 49.4618L21.3014 57.2618C21.2599 57.3898 21.2465 57.5247 21.262 57.6579C21.2775 57.7911 21.3216 57.9198 21.3915 58.036C21.4615 58.1522 21.5557 58.2534 21.6684 58.3332C21.7811 58.4131 21.9099 58.4699 22.0466 58.5C22.1808 58.5347 22.321 58.5429 22.4586 58.524C22.5962 58.5051 22.7283 58.4596 22.8468 58.3902C22.9653 58.3208 23.0677 58.2291 23.1478 58.1205C23.2279 58.012 23.2839 57.889 23.3124 57.759L25.3541 49.959C25.3904 49.8309 25.399 49.697 25.3792 49.5656C25.3594 49.4342 25.3117 49.308 25.2391 49.1948C25.1665 49.0816 25.0704 48.9838 24.9567 48.9073C24.8431 48.8308 24.7143 48.7773 24.5783 48.75V48.75Z" fill="#5F2DED"/>
<path d="M29.9989 52.8158L26.9364 50.8658C26.7114 50.7246 26.4371 50.6742 26.1732 50.7253C25.9094 50.7764 25.6774 50.925 25.5277 51.1388C25.3799 51.3537 25.3271 51.6157 25.3806 51.8677C25.4342 52.1197 25.5897 52.3413 25.8135 52.4843L27.6 53.625L25.8135 54.7658C25.6325 54.8819 25.4952 55.0504 25.4217 55.2466C25.3482 55.4427 25.3425 55.6562 25.4052 55.8557C25.468 56.0552 25.596 56.2302 25.7705 56.3552C25.9451 56.4801 26.1569 56.5484 26.375 56.55C26.5757 56.5522 26.772 56.4942 26.9364 56.3843L29.9989 54.4343C30.1379 54.3451 30.2518 54.2246 30.3305 54.0835C30.4092 53.9424 30.4504 53.7849 30.4504 53.625C30.4504 53.4651 30.4092 53.3076 30.3305 53.1665C30.2518 53.0254 30.1379 52.9049 29.9989 52.8158Z" fill="#FFB31F"/>
<path d="M35.9228 55.8072H48.1728C48.4435 55.8072 48.7032 55.7045 48.8946 55.5216C49.0861 55.3388 49.1936 55.0908 49.1936 54.8322C49.1936 54.5736 49.0861 54.3256 48.8946 54.1427C48.7032 53.9599 48.4435 53.8572 48.1728 53.8572H35.9228C35.6521 53.8572 35.3924 53.9599 35.201 54.1427C35.0095 54.3256 34.902 54.5736 34.902 54.8322C34.902 55.0908 35.0095 55.3388 35.201 55.5216C35.3924 55.7045 35.6521 55.8072 35.9228 55.8072Z" fill="#FFB31F"/>
<path d="M42.0392 58.5H35.451C35.3054 58.5 35.1657 58.5978 35.0628 58.772C34.9598 58.9461 34.902 59.1823 34.902 59.4286C34.902 59.6748 34.9598 59.911 35.0628 60.0852C35.1657 60.2593 35.3054 60.3571 35.451 60.3571H42.0392C42.1848 60.3571 42.3245 60.2593 42.4275 60.0852C42.5304 59.911 42.5883 59.6748 42.5883 59.4286C42.5883 59.1823 42.5304 58.9461 42.4275 58.772C42.3245 58.5978 42.1848 58.5 42.0392 58.5Z" fill="#FFB31F"/>
<path d="M51.8958 66.3V42.9C51.8958 42.6415 51.7882 42.3935 51.5968 42.2106C51.4054 42.0278 51.1457 41.925 50.875 41.925H14.125C13.8542 41.925 13.5946 42.0278 13.4031 42.2106C13.2117 42.3935 13.1041 42.6415 13.1041 42.9V66.3C12.2919 66.3 11.5129 66.6082 10.9386 67.1568C10.3643 67.7053 10.0416 68.4493 10.0416 69.225C10.0416 70.2594 10.4718 71.2514 11.2376 71.9828C12.0034 72.7142 13.042 73.125 14.125 73.125H50.875C51.9579 73.125 52.9965 72.7142 53.7623 71.9828C54.5281 71.2514 54.9583 70.2594 54.9583 69.225C54.9583 68.4493 54.6356 67.7053 54.0613 67.1568C53.487 66.6082 52.708 66.3 51.8958 66.3ZM49.8541 63.375H33.5208V43.875H49.8541V63.375ZM15.1458 43.875H31.4791V63.375H15.1458V43.875ZM50.875 71.175H14.125C13.5835 71.175 13.0642 70.9696 12.6813 70.6039C12.2984 70.2382 12.0833 69.7422 12.0833 69.225C12.0833 68.9665 12.1908 68.7185 12.3823 68.5356C12.5737 68.3528 12.8334 68.25 13.1041 68.25H26.7629L27.5081 69.6638C27.5929 69.8246 27.7227 69.9598 27.8831 70.0545C28.0434 70.1491 28.2281 70.1995 28.4166 70.2H36.5833C36.7718 70.1995 36.9565 70.1491 37.1168 70.0545C37.2772 69.9598 37.407 69.8246 37.4918 69.6638L38.237 68.25H51.8958C52.1665 68.25 52.4262 68.3528 52.6176 68.5356C52.8091 68.7185 52.9166 68.9665 52.9166 69.225C52.9166 69.7422 52.7015 70.2382 52.3186 70.6039C51.9357 70.9696 51.4164 71.175 50.875 71.175Z" fill="#5F2DED"/>
</g>
<defs>
<clipPath id="clip0_703_21">
<rect width="49" height="39" fill="white" transform="translate(8 39)"/>
</clipPath>
</defs>
</svg>
