<svg width="86" height="82" viewBox="0 0 86 82" fill="none" xmlns="http://www.w3.org/2000/svg">
<path fill-rule="evenodd" clip-rule="evenodd" d="M69.3775 57.7578C60.8582 72.0213 45.1005 66.5245 29.1736 60.874C13.2467 55.2235 0.819635 46.0155 9.33895 31.752C17.8583 17.4885 37.6595 10.5099 53.5803 16.1554C69.5011 21.8008 77.8609 43.5356 69.3488 57.7908L69.3775 57.7578Z" fill="#5F2DED" fill-opacity="0.05"/>
<path d="M22.351 70.9473C16.546 70.3684 11.988 65.655 11.988 59.9492C11.988 53.8299 17.191 48.8684 23.512 48.8684C25.404 48.8684 27.21 49.3232 28.801 50.1088L30.865 48.1242C28.715 46.8838 26.221 46.1809 23.512 46.1809C15.6 46.1809 9.15002 52.3828 9.15002 59.9905C9.15002 67.3915 15.213 73.4694 22.867 73.7588C22.523 73.0973 22.308 72.3944 22.308 71.6088V70.9473H22.351Z" fill="#5F2DED"/>
<path d="M36.971 61.3962L37.874 60.8174C37.917 60.5279 37.917 60.2385 37.917 59.9078C37.917 57.3443 37.186 54.9049 35.896 52.8789L33.832 54.8635C34.649 56.3933 35.122 58.0885 35.122 59.9078C35.122 60.776 34.993 61.6029 34.821 62.4299C35.552 62.2231 36.283 61.8924 36.971 61.3962Z" fill="#5F2DED"/>
<path d="M23.5551 54.0367C23.8991 54.0367 24.2431 54.0781 24.5871 54.1194L26.8661 51.9281C25.8341 51.5146 24.7161 51.3079 23.5551 51.3079C18.6101 51.3079 14.6111 55.1531 14.6111 59.9079C14.6111 64.2492 18.0081 67.8877 22.3511 68.4252V67.4329C22.3511 66.8127 22.4801 66.2752 22.6951 65.7377C19.7281 65.3242 17.4061 62.8848 17.4061 59.9079C17.4061 56.6829 20.1581 54.0367 23.5551 54.0367Z" fill="#5F2DED"/>
<path d="M31.9831 62.7608C32.3271 61.8512 32.4991 60.9002 32.4991 59.9079C32.4991 58.7915 32.2841 57.7166 31.8541 56.7242L29.5751 58.9156C29.6611 59.2464 29.6611 59.5771 29.6611 59.9079C29.6611 60.9415 29.4031 61.8925 28.8871 62.7608H31.9831Z" fill="#5F2DED"/>
<path d="M43.0771 45.3953C42.9051 45.0232 42.5181 44.7751 42.0881 44.7751H39.2931V42.0876C39.2931 41.6742 39.0351 41.302 38.6481 41.1367C38.2611 40.9713 37.7881 41.054 37.4871 41.3434L34.6061 44.1136C34.3911 44.3203 34.3051 44.5684 34.3051 44.8165V47.628L24.8021 56.7655C24.4151 56.6001 23.9851 56.5174 23.5121 56.5174C21.5771 56.5174 19.9861 58.0472 19.9861 59.9078C19.9861 61.7684 21.5771 63.2982 23.5121 63.2982C25.4471 63.2982 27.0381 61.7684 27.0381 59.9078C27.0381 59.453 26.9521 59.0395 26.7801 58.6674L36.2831 49.5299H39.2071C39.5081 49.5299 39.7661 49.4059 39.9381 49.2405L42.8191 46.4703C43.1631 46.1809 43.2491 45.7674 43.0771 45.3953Z" fill="#FFB31F"/>
<path d="M32.4991 65.1587H27.2101C25.8771 65.1587 24.8021 66.1924 24.8021 67.4741V71.5674C24.8021 72.8491 25.8771 73.8828 27.2101 73.8828H28.4571L29.5321 79.7126C29.6181 80.0847 29.9191 80.3741 30.3061 80.3741H32.7141C33.2301 80.3741 33.6171 79.9193 33.5311 79.4645L32.4991 73.9241C34.6061 73.9241 36.6271 74.5443 38.3471 75.702L39.8091 76.6943V62.3885L38.3901 63.3809C36.6701 64.5386 34.6061 65.1587 32.4991 65.1587Z" fill="#5F2DED"/>
<path d="M44.926 66.5232V61.1482C44.926 60.1972 43.808 59.6597 43.034 60.1972L42.088 60.8587V78.1414L43.034 78.803C43.851 79.3405 44.926 78.803 44.926 77.852V72.477C46.56 72.353 47.85 71.0712 47.85 69.5001C47.807 67.9289 46.517 66.6472 44.926 66.5232Z" fill="#5F2DED"/>
</svg>
