<svg width="86" height="87" viewBox="0 0 86 87" fill="none" xmlns="http://www.w3.org/2000/svg">
<path fill-rule="evenodd" clip-rule="evenodd" d="M69.3775 58.7376C60.8582 73.0011 45.1005 67.5042 29.1736 61.8537C13.2467 56.2033 0.819635 46.9952 9.33895 32.7317C17.8583 18.4682 37.6595 11.4896 53.5803 17.1351C69.5011 22.7806 77.8609 44.5154 69.3488 58.7706L69.3775 58.7376Z" fill="#5F2DED" fill-opacity="0.05"/>
<g clip-path="url(#clip0_703_24)">
<path d="M41.033 43.9455L32.2092 52.7221C30.7036 52.3225 29.1056 52.4483 27.682 53.0786C25.7511 53.9889 24.3916 55.875 23.643 58.6843C23.6257 58.7529 23.614 58.8228 23.608 58.8932C23.6001 58.9825 23.3731 61.0882 20.3797 61.9204C20.1908 61.9728 20.0184 62.0721 19.8787 62.2091C19.739 62.3461 19.6367 62.5161 19.5814 62.7033C19.526 62.8904 19.5195 63.0885 19.5624 63.2789C19.6052 63.4692 19.6961 63.6456 19.8265 63.7914C21.8603 65.7821 24.6015 66.8947 27.455 66.8876C29.2761 66.8666 31.0726 66.4656 32.7281 65.7107C34.1553 65.1047 35.3497 64.0598 36.1361 62.7293C36.9225 61.3988 37.2596 59.8526 37.0979 58.3177C37.0652 58.0699 37.0194 57.824 36.9607 57.581L45.8534 48.7375C46.1715 48.4247 46.4231 48.0514 46.5932 47.6399C46.7633 47.2283 46.8485 46.787 46.8436 46.3421C46.8457 45.6716 46.6473 45.0157 46.2737 44.4576C45.9002 43.8995 45.3683 43.4644 44.7456 43.2076C44.1229 42.9508 43.4376 42.8838 42.7765 43.0152C42.1155 43.1465 41.5086 43.4703 41.033 43.9455H41.033ZM31.7966 63.6061C30.4173 64.312 28.8805 64.6585 27.3299 64.6131C25.7793 64.5678 24.2657 64.132 22.9305 63.3466C23.7132 62.9281 24.3884 62.3357 24.9034 61.6154C25.4185 60.8951 25.7596 60.0664 25.9002 59.1936C26.0408 58.3645 26.3598 57.5753 26.8353 56.8801C27.3108 56.1848 27.9316 55.5999 28.6553 55.1653C29.8276 54.6918 31.1389 54.6898 32.3126 55.1596C32.9893 55.4739 33.5737 55.9556 34.0098 56.5587C34.4459 57.1617 34.7192 57.8659 34.8035 58.604C34.9051 59.6479 34.668 60.6966 34.1269 61.5968C33.5858 62.4969 32.7692 63.201 31.7966 63.6061ZM44.2161 45.5705C44.3187 45.6743 44.3993 45.7973 44.4534 45.9325C44.5075 46.0677 44.5339 46.2123 44.5311 46.3578C44.5325 46.498 44.5054 46.6371 44.4515 46.7666C44.3975 46.8962 44.3179 47.0136 44.2172 47.1119L35.9569 55.327C35.5298 54.7325 35.0093 54.2103 34.4153 53.7803L42.668 45.5722C42.8735 45.3685 43.1517 45.2541 43.4417 45.2538C43.7318 45.2535 44.0102 45.3673 44.2161 45.5705Z" fill="#FFB31F"/>
<path d="M17.9419 75.845H37.4999C39.0338 75.8431 40.5043 75.2362 41.5889 74.1574C42.6736 73.0787 43.2837 71.6161 43.2856 70.0905V60.3643C43.2856 60.0593 43.1638 59.7668 42.947 59.5511C42.7301 59.3355 42.436 59.2143 42.1294 59.2143C41.8227 59.2143 41.5286 59.3355 41.3118 59.5511C41.0949 59.7668 40.9731 60.0593 40.9731 60.3643V70.0904C40.972 71.0063 40.6058 71.8843 39.9547 72.5319C39.3035 73.1796 38.4207 73.5439 37.4999 73.545H17.9419C17.0211 73.5439 16.1382 73.1796 15.4871 72.532C14.836 71.8844 14.4697 71.0063 14.4686 70.0905V50.6376C14.4697 49.7218 14.836 48.8438 15.4872 48.1963C16.1383 47.5488 17.0211 47.1846 17.9419 47.1837H27.7203C28.027 47.1837 28.321 47.0625 28.5379 46.8468C28.7547 46.6312 28.8765 46.3387 28.8765 46.0337C28.8765 45.7287 28.7547 45.4362 28.5379 45.2205C28.321 45.0048 28.027 44.8837 27.7203 44.8837H17.9419C16.408 44.8854 14.9375 45.4922 13.8529 46.5708C12.7682 47.6495 12.158 49.112 12.1561 50.6376V70.0904C12.158 71.6161 12.7682 73.0787 13.8528 74.1574C14.9374 75.2362 16.408 75.8431 17.9419 75.845Z" fill="#5F2DED"/>
</g>
<defs>
<clipPath id="clip0_703_24">
<rect width="37" height="46" fill="white" transform="translate(11 41)"/>
</clipPath>
</defs>
</svg>
