<svg width="86" height="83" viewBox="0 0 86 83" fill="none" xmlns="http://www.w3.org/2000/svg">
<path fill-rule="evenodd" clip-rule="evenodd" d="M69.3775 58.7376C60.8582 73.0011 45.1005 67.5042 29.1736 61.8537C13.2467 56.2033 0.819635 46.9952 9.33895 32.7317C17.8583 18.4682 37.6595 11.4896 53.5803 17.1351C69.5011 22.7806 77.8609 44.5154 69.3488 58.7706L69.3775 58.7376Z" fill="#5F2DED" fill-opacity="0.05"/>
<g clip-path="url(#clip0_703_25)">
<path d="M42.0462 49.8125C41.7036 49.8174 41.3751 49.9558 41.125 50.2006V46.9375C41.125 45.7938 40.6904 44.6969 39.9168 43.8881C39.1432 43.0794 38.094 42.625 37 42.625H35.625V41.1875C35.625 40.0438 35.1904 38.9469 34.4168 38.1381C33.6432 37.3294 32.594 36.875 31.5 36.875H20.5C19.406 36.875 18.3568 37.3294 17.5832 38.1381C16.8096 38.9469 16.375 40.0438 16.375 41.1875V42.625H15C13.906 42.625 12.8568 43.0794 12.0832 43.8881C11.3096 44.6969 10.875 45.7938 10.875 46.9375V67.0625C10.875 68.2062 11.3096 69.3031 12.0832 70.1119C12.8568 70.9207 13.906 71.375 15 71.375H16.375V72.8125C16.375 73.9562 16.8096 75.0531 17.5832 75.8619C18.3568 76.6707 19.406 77.125 20.5 77.125H31.5C32.594 77.125 33.6432 76.6707 34.4168 75.8619C35.1904 75.0531 35.625 73.9562 35.625 72.8125V71.375H37C38.094 71.375 39.1432 70.9207 39.9168 70.1119C40.6904 69.3031 41.125 68.2062 41.125 67.0625V55.1744C41.3751 55.4192 41.7036 55.5576 42.0462 55.5625C42.4109 55.5625 42.7607 55.411 43.0185 55.1415C43.2764 54.8719 43.4212 54.5062 43.4212 54.125V51.25C43.4212 50.8688 43.2764 50.5031 43.0185 50.2335C42.7607 49.964 42.4109 49.8125 42.0462 49.8125ZM19.125 41.1875C19.125 40.8063 19.2699 40.4406 19.5277 40.171C19.7856 39.9015 20.1353 39.75 20.5 39.75H31.5C31.8647 39.75 32.2144 39.9015 32.4723 40.171C32.7301 40.4406 32.875 40.8063 32.875 41.1875V42.625H19.125V41.1875ZM32.875 72.8125C32.875 73.1937 32.7301 73.5594 32.4723 73.829C32.2144 74.0985 31.8647 74.25 31.5 74.25H20.5C20.1353 74.25 19.7856 74.0985 19.5277 73.829C19.2699 73.5594 19.125 73.1937 19.125 72.8125V71.375H32.875V72.8125ZM38.375 67.0625C38.375 67.4437 38.2301 67.8094 37.9723 68.079C37.7144 68.3486 37.3647 68.5 37 68.5H15C14.6353 68.5 14.2856 68.3486 14.0277 68.079C13.7699 67.8094 13.625 67.4437 13.625 67.0625V46.9375C13.625 46.5563 13.7699 46.1906 14.0277 45.921C14.2856 45.6515 14.6353 45.5 15 45.5H37C37.3647 45.5 37.7144 45.6515 37.9723 45.921C38.2301 46.1906 38.375 46.5563 38.375 46.9375V67.0625Z" fill="#5F2DED"/>
<path d="M33.5624 57H31.4999L30.5924 51.02C30.5464 50.7228 30.4124 50.4483 30.2092 50.235C30.0061 50.0218 29.744 49.8806 29.4599 49.8314C29.1759 49.7821 28.8843 49.8274 28.6261 49.9607C28.368 50.094 28.1564 50.3086 28.0212 50.5743L25.2712 56.1518L24.0887 52.2562C24.0066 51.9854 23.8495 51.7462 23.6375 51.5686C23.4254 51.3911 23.1678 51.2832 22.8971 51.2586C22.6264 51.234 22.3548 51.2937 22.1166 51.4304C21.8784 51.567 21.6843 51.7743 21.5587 52.0262L19.7849 55.5625H18.4099C18.0452 55.5625 17.6955 55.7139 17.4376 55.9835C17.1798 56.2531 17.0349 56.6187 17.0349 57C17.0349 57.3812 17.1798 57.7468 17.4376 58.0164C17.6955 58.286 18.0452 58.4375 18.4099 58.4375H20.5824C20.8312 58.4368 21.0751 58.3655 21.2881 58.2314C21.5012 58.0972 21.6755 57.9051 21.7924 57.6756L22.4249 56.4106L23.6074 60.3062C23.6898 60.5745 23.8459 60.8116 24.0561 60.9879C24.2663 61.1643 24.5215 61.2721 24.7899 61.2981H24.9137C25.1624 61.2974 25.4063 61.2262 25.6194 61.092C25.8325 60.9578 26.0068 60.7657 26.1237 60.5362L28.5299 55.7493L28.9699 58.6243C29.0226 58.9645 29.1905 59.2735 29.4428 59.4952C29.6952 59.7168 30.0153 59.8363 30.3449 59.8318H33.5624C33.9271 59.8318 34.2768 59.6804 34.5347 59.4108C34.7926 59.1412 34.9374 58.7756 34.9374 58.3943C34.9374 58.0131 34.7926 57.6475 34.5347 57.3779C34.2768 57.1083 33.9271 56.9568 33.5624 56.9568V57Z" fill="#FFB31F"/>
</g>
<defs>
<clipPath id="clip0_703_25">
<rect width="44" height="46" fill="white" transform="translate(4 34)"/>
</clipPath>
</defs>
</svg>
