<svg width="86" height="82" viewBox="0 0 86 82" fill="none" xmlns="http://www.w3.org/2000/svg">
<path fill-rule="evenodd" clip-rule="evenodd" d="M69.3775 57.7578C60.8582 72.0213 45.1005 66.5245 29.1736 60.874C13.2467 55.2235 0.819636 46.0155 9.33895 31.752C17.8583 17.4885 37.6595 10.5099 53.5803 16.1554C69.5011 21.8008 77.8609 43.5356 69.3488 57.7908L69.3775 57.7578Z" fill="#5F2DED" fill-opacity="0.05"/>
<path d="M30.525 75.0499H22.4753C20.7037 75.0499 19.2625 73.7046 19.2625 72.0509C19.2625 67.723 17.7895 63.4935 15.115 60.1417C13.2743 57.835 12.3045 55.0912 12.3103 52.2067C12.3172 48.7711 13.7888 45.4906 16.4541 42.9697C19.1201 40.448 22.6146 39.0323 26.2939 38.9835C30.1232 38.9323 33.7312 40.285 36.4566 42.7915C39.1864 45.302 40.6898 48.6547 40.6898 52.2322C40.6898 55.0423 39.7594 57.7272 37.9993 59.9965C35.2113 63.5912 33.7377 67.7597 33.7377 72.0511C33.7377 73.7046 32.2964 75.0499 30.525 75.0499ZM26.5008 41.6603C26.4454 41.6603 26.3904 41.6607 26.3349 41.6614C20.3004 41.7416 15.1927 46.5731 15.1814 52.2117C15.1767 54.5138 15.9501 56.7029 17.418 58.5424C20.4589 62.3533 22.1335 67.1507 22.1335 72.0509C22.1335 72.2278 22.2869 72.3716 22.4752 72.3716H30.5249C30.7133 72.3716 30.8665 72.2278 30.8665 72.051C30.8665 67.1921 32.5286 62.4809 35.6733 58.4265C37.0768 56.6168 37.8187 54.4749 37.8187 52.2321C37.8187 49.3773 36.6191 46.7019 34.4409 44.6987C32.3067 42.7359 29.4925 41.6603 26.5008 41.6603Z" fill="#5F2DED"/>
<path d="M36.5884 66.3186H16.4117V68.9969H36.5884V66.3186Z" fill="#5F2DED"/>
<path d="M25.8501 61.4466L23.4301 60.0054L26.8268 55.0417H23.5536C23.0311 55.0417 22.5498 54.7768 22.297 54.3501C22.0444 53.9235 22.0602 53.4024 22.3384 52.9897L27.0805 45.9543L29.5109 47.38L26.1519 52.3634H29.4464C29.9708 52.3634 30.4533 52.63 30.7053 53.059C30.9573 53.4879 30.9385 54.0109 30.6564 54.4232L25.8501 61.4466Z" fill="#FFB31F"/>
<path d="M27.9355 33.1791H25.0645V37.1965H27.9355V33.1791Z" fill="#5F2DED"/>
<path d="M12.6816 37.9313L10.6503 39.8241L13.6922 42.6649L15.7235 40.7722L12.6816 37.9313Z" fill="#5F2DED"/>
<path d="M40.3173 37.9303L37.2754 40.7711L39.3067 42.6639L42.3486 39.823L40.3173 37.9303Z" fill="#5F2DED"/>
</svg>
